<svg xmlns="http://www.w3.org/2000/svg" xmlns:xlink="http://www.w3.org/1999/xlink" width="1080" zoomAndPan="magnify" viewBox="0 0 810 1439.999935" height="1920" preserveAspectRatio="xMidYMid meet" version="1.0"><path fill="#ffffff" d="M 405 405.816406 C 578.503906 405.816406 719.175781 546.484375 719.175781 720 C 719.175781 893.5 578.503906 1034.175781 405 1034.175781 C 231.484375 1034.175781 90.816406 893.5 90.816406 720 C 90.816406 546.484375 231.484375 405.816406 405 405.816406 Z M 405 405.816406 " fill-opacity="1" fill-rule="nonzero"/><path fill="#ffffff" d="M 405 1044 C 226.347656 1044 81 898.640625 81 720 C 81 541.347656 226.347656 396 405 396 C 583.640625 396 729 541.347656 729 720 C 729 898.640625 583.640625 1044 405 1044 Z M 405 415.632812 C 237.175781 415.632812 100.632812 552.167969 100.632812 720 C 100.632812 887.832031 237.175781 1024.367188 405 1024.367188 C 572.820312 1024.367188 709.371094 887.824219 709.371094 720 C 709.371094 552.175781 572.832031 415.632812 405 415.632812 Z M 405 415.632812 " fill-opacity="1" fill-rule="nonzero"/><path fill="#000000" d="M 431.023438 842.535156 L 311.359375 718.269531 L 431.257812 597.464844 L 459.152344 625.152344 L 366.277344 718.703125 L 459.347656 815.308594 Z M 431.023438 842.535156 " fill-opacity="1" fill-rule="nonzero"/></svg>