<svg xmlns="http://www.w3.org/2000/svg" xmlns:xlink="http://www.w3.org/1999/xlink" width="1000" zoomAndPan="magnify" viewBox="0 0 750 749.999995" height="1000" preserveAspectRatio="xMidYMid meet" version="1.0"><defs><g/><clipPath id="e26456c79b"><path d="M 194 75 L 564 75 L 564 675 L 194 675 Z M 194 75 " clip-rule="nonzero"/></clipPath></defs><g clip-path="url(#e26456c79b)"><path fill="#fad02c" d="M 408.421875 674.507812 C 466.792969 644.226562 469.402344 548.578125 441.816406 538.089844 C 446.765625 556.847656 424.898438 571.128906 408.421875 589.5 C 430.675781 527.039062 359.265625 464.578125 378.140625 421.257812 C 268.777344 484.546875 269.695312 633.175781 346.941406 673.945312 C 241.011719 653.707031 139.855469 536.933594 228.566406 385.082031 C 282.761719 292.277344 444.632812 187.269531 371.859375 74.703125 C 471.890625 133.371094 531.238281 271.210938 455.148438 454.324219 C 471.890625 448.875 493.699219 414.679688 505.164062 366.382812 C 610.351562 462.683594 568.574219 650.683594 408.421875 674.507812 " fill-opacity="1" fill-rule="nonzero"/></g><g fill="#ffffff" fill-opacity="1"><g transform="translate(338.697233, 515.015563)"><g><path d="M 3.671875 0.140625 C 3.160156 0.140625 2.753906 -0.00390625 2.453125 -0.296875 C 2.148438 -0.585938 2 -0.976562 2 -1.46875 C 2 -1.9375 2.148438 -2.320312 2.453125 -2.625 C 2.753906 -2.9375 3.160156 -3.09375 3.671875 -3.09375 C 4.203125 -3.09375 4.617188 -2.945312 4.921875 -2.65625 C 5.222656 -2.363281 5.375 -1.972656 5.375 -1.484375 C 5.375 -1.003906 5.21875 -0.613281 4.90625 -0.3125 C 4.601562 -0.0078125 4.191406 0.140625 3.671875 0.140625 Z M 3.671875 0.140625 "/></g></g></g></svg>