<svg xmlns="http://www.w3.org/2000/svg" xmlns:xlink="http://www.w3.org/1999/xlink" width="1000" zoomAndPan="magnify" viewBox="0 0 750 749.999995" height="1000" preserveAspectRatio="xMidYMid meet" version="1.0"><defs><g/></defs><path fill="#ffffff" d="M 447.523438 254.941406 L 547.59375 254.941406 C 555.847656 254.941406 562.914062 259.289062 566.597656 266.660156 C 570.285156 274.035156 569.582031 282.285156 564.667969 288.914062 L 300.226562 644.777344 C 298.121094 647.585938 295.796875 649.5625 292.636719 651.140625 L 250.5 672.207031 C 244.269531 675.324219 237.550781 675.28125 231.320312 672.164062 L 214.378906 663.519531 C 205.03125 658.777344 200.554688 648.199219 203.714844 638.195312 L 266.039062 439.457031 L 202.484375 439.457031 C 195.769531 439.457031 190.0625 436.691406 185.851562 431.46875 C 181.679688 426.289062 180.230469 420.058594 181.679688 413.5625 L 248.480469 113.089844 C 249.929688 106.59375 253.792969 101.632812 259.71875 98.648438 L 301.894531 77.582031 C 305.054688 76 308.085938 75.296875 311.597656 75.296875 L 522.664062 77.097656 C 530.652344 77.1875 537.414062 81.265625 541.230469 88.246094 C 545.003906 95.226562 544.699219 103.167969 540.441406 109.839844 L 447.523438 254.941406 " fill-opacity="1" fill-rule="evenodd"/><path fill="#000000" d="M 319.1875 96.671875 L 522.488281 98.386719 L 408.636719 276.230469 L 547.59375 276.230469 L 283.15625 632.09375 L 240.976562 653.160156 L 223.992188 644.558594 L 295.050781 418.171875 L 202.484375 418.171875 L 269.242188 117.695312 L 311.421875 96.585938 L 319.1875 96.671875 " fill-opacity="1" fill-rule="evenodd"/><path fill="#f4bc21" d="M 504.976562 107.863281 L 319.144531 106.285156 L 256.644531 387.402344 L 350.351562 387.402344 L 275.386719 626.34375 L 528.371094 285.886719 L 390.949219 285.886719 L 504.976562 107.863281 " fill-opacity="1" fill-rule="evenodd"/><g fill="#000000" fill-opacity="1"><g transform="translate(263.009169, 571.466008)"><g><path d="M 3.671875 0.140625 C 3.160156 0.140625 2.753906 -0.00390625 2.453125 -0.296875 C 2.148438 -0.585938 2 -0.976562 2 -1.46875 C 2 -1.9375 2.148438 -2.320312 2.453125 -2.625 C 2.753906 -2.9375 3.160156 -3.09375 3.671875 -3.09375 C 4.203125 -3.09375 4.617188 -2.945312 4.921875 -2.65625 C 5.222656 -2.363281 5.375 -1.972656 5.375 -1.484375 C 5.375 -1.003906 5.21875 -0.613281 4.90625 -0.3125 C 4.601562 -0.0078125 4.191406 0.140625 3.671875 0.140625 Z M 3.671875 0.140625 "/></g></g></g></svg>