<svg xmlns="http://www.w3.org/2000/svg" xmlns:xlink="http://www.w3.org/1999/xlink" width="1080" zoomAndPan="magnify" viewBox="0 0 810 1439.999935" height="1920" preserveAspectRatio="xMidYMid meet" version="1.0"><defs><g/></defs><path fill="#ffffff" d="M 405 396 C 226.058594 396 81 541.058594 81 720 C 81 898.941406 226.058594 1044 405 1044 C 583.941406 1044 729 898.941406 729 720 C 729 541.058594 583.941406 396 405 396 Z M 433.820312 551.816406 C 476.757812 586.476562 519.761719 621.253906 562.710938 655.972656 C 575.066406 665.128906 582.386719 679.652344 582.386719 695.03125 L 582.386719 857.664062 C 582.386719 879.433594 564.402344 896.726562 542.632812 896.726562 L 449.183594 896.726562 C 449.183594 871.914062 449.136719 820.011719 449.007812 789.207031 C 449.007812 783.246094 444.671875 778.910156 438.710938 778.910156 L 371.058594 778.910156 C 365.097656 778.910156 360.757812 783.25 360.757812 789.207031 C 360.757812 820.753906 360.671875 895.996094 360.816406 896.726562 L 267.363281 896.726562 C 245.59375 896.726562 227.609375 879.433594 227.609375 857.664062 L 227.609375 695.03125 C 227.609375 679.382812 235.507812 665.488281 246.910156 656.375 L 376.320312 552.910156 C 393.035156 539.246094 414.242188 538.664062 433.820312 551.816406 Z M 433.820312 551.816406 " fill-opacity="1" fill-rule="nonzero"/><g fill="#ffffff" fill-opacity="1"><g transform="translate(280.640531, 758.777543)"><g><path d="M 13.1875 0.484375 C 11.320312 0.484375 9.847656 -0.0351562 8.765625 -1.078125 C 7.691406 -2.117188 7.15625 -3.507812 7.15625 -5.25 C 7.15625 -6.945312 7.691406 -8.34375 8.765625 -9.4375 C 9.847656 -10.53125 11.320312 -11.078125 13.1875 -11.078125 C 15.082031 -11.078125 16.566406 -10.550781 17.640625 -9.5 C 18.722656 -8.457031 19.265625 -7.070312 19.265625 -5.34375 C 19.265625 -3.613281 18.71875 -2.207031 17.625 -1.125 C 16.53125 -0.0507812 15.050781 0.484375 13.1875 0.484375 Z M 13.1875 0.484375 "/></g></g></g></svg>