<svg xmlns="http://www.w3.org/2000/svg" xmlns:xlink="http://www.w3.org/1999/xlink" width="1080" zoomAndPan="magnify" viewBox="0 0 810 1439.999935" height="1920" preserveAspectRatio="xMidYMid meet" version="1.0"><defs><g/><clipPath id="0c6760bff1"><path d="M 81 396 L 729 396 L 729 1044 L 81 1044 Z M 81 396 " clip-rule="nonzero"/></clipPath></defs><g clip-path="url(#0c6760bff1)"><path fill="#ffffff" d="M 404.90625 395.9375 C 583.816406 395.9375 728.847656 540.96875 728.847656 719.875 C 728.847656 898.785156 583.816406 1043.816406 404.90625 1043.816406 C 226 1043.816406 80.96875 898.785156 80.96875 719.875 C 80.96875 540.96875 226 395.9375 404.90625 395.9375 Z M 319.6875 674.664062 C 319.195312 642.234375 393.417969 624.433594 427.082031 633.332031 C 512.394531 655.910156 388.890625 854.40625 410.265625 883.753906 C 422.15625 900.078125 476.082031 887.203125 476.082031 902.050781 C 476.082031 916.894531 439.464844 955.484375 377.097656 942.640625 C 314.730469 929.769531 331.578125 886.21875 339.984375 851.078125 C 348.390625 815.9375 384.519531 718.921875 384.519531 702.105469 C 384.519531 649.316406 318.855469 688.554688 319.65625 674.632812 Z M 441.34375 494.492188 C 468.261719 494.492188 490.097656 516.328125 490.097656 543.246094 C 490.097656 570.164062 468.261719 592 441.34375 592 C 414.425781 592 392.589844 570.164062 392.589844 543.246094 C 392.589844 516.328125 414.425781 494.492188 441.34375 494.492188 Z M 441.34375 494.492188 " fill-opacity="1" fill-rule="evenodd"/></g><g fill="#ffffff" fill-opacity="1"><g transform="translate(280.640531, 758.777543)"><g><path d="M 13.1875 0.484375 C 11.320312 0.484375 9.847656 -0.0351562 8.765625 -1.078125 C 7.691406 -2.117188 7.15625 -3.507812 7.15625 -5.25 C 7.15625 -6.945312 7.691406 -8.34375 8.765625 -9.4375 C 9.847656 -10.53125 11.320312 -11.078125 13.1875 -11.078125 C 15.082031 -11.078125 16.566406 -10.550781 17.640625 -9.5 C 18.722656 -8.457031 19.265625 -7.070312 19.265625 -5.34375 C 19.265625 -3.613281 18.71875 -2.207031 17.625 -1.125 C 16.53125 -0.0507812 15.050781 0.484375 13.1875 0.484375 Z M 13.1875 0.484375 "/></g></g></g></svg>