<svg xmlns="http://www.w3.org/2000/svg" xmlns:xlink="http://www.w3.org/1999/xlink" width="864" zoomAndPan="magnify" viewBox="0 0 648 540.000001" height="720" preserveAspectRatio="xMidYMid meet" version="1.0"><defs><clipPath id="d108c3ef89"><path d="M 54.5 102.617188 L 593.5 102.617188 L 593.5 125.703125 L 54.5 125.703125 Z M 54.5 102.617188 " clip-rule="nonzero"/></clipPath><clipPath id="6cbb5f3451"><path d="M 54.425781 169.585938 L 593.425781 169.585938 L 593.425781 192.671875 L 54.425781 192.671875 Z M 54.425781 169.585938 " clip-rule="nonzero"/></clipPath><clipPath id="cbf5bc791d"><path d="M 54.460938 136.101562 L 593.464844 136.101562 L 593.464844 159.1875 L 54.460938 159.1875 Z M 54.460938 136.101562 " clip-rule="nonzero"/></clipPath><clipPath id="ab8d493db4"><path d="M 54.390625 203.070312 L 593.390625 203.070312 L 593.390625 226.15625 L 54.390625 226.15625 Z M 54.390625 203.070312 " clip-rule="nonzero"/></clipPath><clipPath id="2f801a3f82"><path d="M 54.351562 236.550781 L 593.355469 236.550781 L 593.355469 259.640625 L 54.351562 259.640625 Z M 54.351562 236.550781 " clip-rule="nonzero"/></clipPath><clipPath id="27e0c4b9ec"><path d="M 142.492188 87.992188 L 505.570312 87.992188 L 505.570312 269.15625 L 142.492188 269.15625 Z M 142.492188 87.992188 " clip-rule="nonzero"/></clipPath><clipPath id="e5becb66b1"><path d="M 179 353 L 470 353 L 470 436.957031 L 179 436.957031 Z M 179 353 " clip-rule="nonzero"/></clipPath><clipPath id="3a4fe74247"><path d="M 156.828125 102.328125 L 491.457031 102.328125 L 491.457031 350 L 156.828125 350 Z M 156.828125 102.328125 " clip-rule="nonzero"/></clipPath><clipPath id="0d6fdb3cac"><path d="M 502 295.355469 L 593.171875 295.355469 L 593.171875 464.539062 L 502 464.539062 Z M 502 295.355469 " clip-rule="nonzero"/></clipPath><clipPath id="04fa2137c8"><path d="M 54.816406 276 L 145.828125 276 L 145.828125 445.144531 L 54.816406 445.144531 Z M 54.816406 276 " clip-rule="nonzero"/></clipPath><clipPath id="28c70558c4"><path d="M 54.5 357 L 593.5 357 L 593.5 484.734375 L 54.5 484.734375 Z M 54.5 357 " clip-rule="nonzero"/></clipPath><clipPath id="3a057b803d"><path d="M 54.5 356.722656 L 593.5 356.722656 L 593.5 484.734375 L 54.5 484.734375 Z M 54.5 356.722656 " clip-rule="nonzero"/></clipPath></defs><g clip-path="url(#d108c3ef89)"><path fill="#ef529c" d="M 54.5 102.617188 L 593.519531 102.617188 L 593.519531 125.703125 L 54.5 125.703125 Z M 54.5 102.617188 " fill-opacity="1" fill-rule="nonzero"/></g><g clip-path="url(#6cbb5f3451)"><path fill="#ef529c" d="M 54.425781 169.585938 L 593.445312 169.585938 L 593.445312 192.671875 L 54.425781 192.671875 Z M 54.425781 169.585938 " fill-opacity="1" fill-rule="nonzero"/></g><g clip-path="url(#cbf5bc791d)"><path fill="#ef529c" d="M 54.460938 136.101562 L 593.480469 136.101562 L 593.480469 159.1875 L 54.460938 159.1875 Z M 54.460938 136.101562 " fill-opacity="1" fill-rule="nonzero"/></g><g clip-path="url(#ab8d493db4)"><path fill="#ef529c" d="M 54.390625 203.070312 L 593.410156 203.070312 L 593.410156 226.15625 L 54.390625 226.15625 Z M 54.390625 203.070312 " fill-opacity="1" fill-rule="nonzero"/></g><g clip-path="url(#2f801a3f82)"><path fill="#ef529c" d="M 54.351562 236.550781 L 593.371094 236.550781 L 593.371094 259.640625 L 54.351562 259.640625 Z M 54.351562 236.550781 " fill-opacity="1" fill-rule="nonzero"/></g><g clip-path="url(#27e0c4b9ec)"><path fill="#000000" d="M 158.480469 344.054688 L 489.464844 344.054688 C 487.640625 348.097656 485.675781 352.058594 483.570312 355.933594 L 164.375 355.933594 C 162.269531 352.058594 160.300781 348.097656 158.480469 344.054688 Z M 156.675781 339.917969 L 491.273438 339.917969 C 493.050781 335.691406 494.675781 331.382812 496.136719 327.003906 L 151.808594 327.003906 C 153.273438 331.382812 154.894531 335.691406 156.675781 339.917969 Z M 323.972656 87.992188 C 223.742188 87.992188 142.492188 169.246094 142.492188 269.472656 C 142.492188 283.019531 143.988281 296.210938 146.804688 308.90625 L 501.140625 308.90625 C 503.957031 296.210938 505.453125 283.015625 505.453125 269.472656 C 505.453125 169.246094 424.199219 87.992188 323.972656 87.992188 Z M 151.136719 324.933594 L 496.808594 324.933594 C 498.382812 320.023438 499.746094 315.023438 500.90625 309.941406 L 147.039062 309.941406 C 148.199219 315.023438 149.5625 320.023438 151.136719 324.933594 Z M 151.136719 324.933594 " fill-opacity="1" fill-rule="nonzero"/></g><g clip-path="url(#e5becb66b1)"><path fill="#ef529c" d="M 189.089844 368.382812 L 459.148438 368.382812 C 456.757812 371.648438 454.25 374.824219 451.632812 377.902344 L 196.609375 377.902344 C 193.992188 374.824219 191.484375 371.648438 189.089844 368.382812 Z M 179.136719 353.140625 C 181.203125 356.71875 183.398438 360.210938 185.714844 363.613281 L 462.523438 363.613281 C 464.839844 360.210938 467.035156 356.71875 469.101562 353.140625 Z M 210.28125 392.195312 L 437.957031 392.195312 C 440.917969 389.441406 443.78125 386.585938 446.535156 383.628906 L 201.703125 383.628906 C 204.460938 386.585938 207.320312 389.441406 210.28125 392.195312 Z M 227.902344 406.484375 L 420.335938 406.484375 C 423.765625 404.070312 427.105469 401.53125 430.335938 398.871094 L 217.902344 398.871094 C 221.136719 401.53125 224.472656 404.070312 227.902344 406.484375 Z M 252.355469 420.773438 L 395.886719 420.773438 C 400.183594 418.730469 404.378906 416.503906 408.464844 414.117188 L 239.777344 414.117188 C 243.859375 416.503906 248.054688 418.730469 252.355469 420.773438 Z M 324.121094 436.914062 C 341.484375 436.914062 358.230469 434.269531 373.976562 429.359375 L 274.265625 429.359375 C 290.011719 434.269531 306.757812 436.914062 324.121094 436.914062 Z M 324.121094 436.914062 " fill-opacity="1" fill-rule="nonzero"/></g><g clip-path="url(#3a4fe74247)"><path fill="#ef4523" d="M 171.5625 338.375 L 476.675781 338.375 C 474.996094 342.097656 473.183594 345.75 471.242188 349.324219 L 176.996094 349.324219 C 175.058594 345.75 173.246094 342.097656 171.5625 338.375 Z M 169.898438 334.558594 L 478.339844 334.558594 C 479.984375 330.664062 481.476562 326.691406 482.824219 322.652344 L 165.414062 322.652344 C 166.761719 326.691406 168.257812 330.664062 169.898438 334.558594 Z M 324.121094 102.328125 C 231.726562 102.328125 156.828125 177.226562 156.828125 269.621094 C 156.828125 282.105469 158.203125 294.269531 160.800781 305.972656 L 487.4375 305.972656 C 490.035156 294.269531 491.414062 282.105469 491.414062 269.621094 C 491.414062 177.226562 416.511719 102.328125 324.121094 102.328125 Z M 164.792969 320.746094 L 483.445312 320.746094 C 484.894531 316.21875 486.152344 311.609375 487.21875 306.925781 L 161.019531 306.925781 C 162.085938 311.609375 163.34375 316.21875 164.792969 320.746094 Z M 164.792969 320.746094 " fill-opacity="1" fill-rule="nonzero"/></g><g clip-path="url(#0d6fdb3cac)"><path fill="#ef529c" d="M 549.671875 338.46875 C 549.65625 338.355469 549.691406 338.246094 549.78125 338.175781 C 551.09375 337.121094 553.050781 337.976562 553.167969 339.65625 L 553.488281 344.183594 C 553.507812 344.480469 553.902344 344.574219 554.050781 344.3125 L 555.640625 341.542969 C 555.792969 341.28125 556.191406 341.382812 556.203125 341.683594 L 556.53125 350.035156 C 556.542969 350.335938 556.941406 350.433594 557.089844 350.171875 L 559.1875 346.5625 C 559.347656 346.285156 559.769531 346.414062 559.75 346.730469 L 559.167969 356.085938 C 559.148438 356.414062 559.589844 356.535156 559.738281 356.242188 L 562.261719 351.261719 C 562.40625 350.96875 562.847656 351.089844 562.828125 351.414062 L 562.324219 360.394531 C 562.304688 360.722656 562.757812 360.835938 562.898438 360.535156 L 565.070312 355.824219 C 565.207031 355.535156 565.640625 355.625 565.644531 355.945312 L 565.828125 364.617188 C 565.835938 364.945312 566.285156 365.027344 566.40625 364.726562 L 568.023438 360.777344 C 568.125 360.527344 568.472656 360.527344 568.578125 360.769531 L 574.433594 374.238281 C 574.558594 374.523438 574.980469 374.457031 575.007812 374.148438 C 575.417969 369.625 576.152344 352.472656 565.621094 339.832031 C 565.574219 339.777344 565.550781 339.707031 565.550781 339.636719 L 565.570312 338.882812 C 565.578125 338.578125 565.984375 338.476562 566.132812 338.742188 L 570.363281 346.167969 C 570.523438 346.441406 570.945312 346.320312 570.925781 346 L 570.6875 341.3125 C 570.671875 340.984375 571.117188 340.867188 571.261719 341.164062 L 575 348.765625 C 575.148438 349.066406 575.601562 348.9375 575.570312 348.605469 L 575.125 343.910156 C 575.097656 343.59375 575.511719 343.453125 575.679688 343.722656 L 580.773438 351.855469 C 580.945312 352.128906 581.375 351.972656 581.324219 351.648438 L 580.679688 347.375 C 580.640625 347.109375 580.949219 346.925781 581.164062 347.09375 L 592.769531 356.175781 C 593.019531 356.375 593.363281 356.101562 593.226562 355.8125 C 590.796875 350.707031 579.367188 329.746094 554.613281 327.378906 C 554.503906 327.371094 554.410156 327.300781 554.367188 327.199219 L 553.972656 326.273438 C 553.871094 326.039062 554.085938 325.796875 554.328125 325.863281 L 560.457031 327.589844 C 560.753906 327.675781 560.96875 327.316406 560.757812 327.09375 L 559.792969 326.082031 C 559.574219 325.851562 559.808594 325.488281 560.105469 325.585938 L 565.660156 327.460938 C 565.941406 327.558594 566.175781 327.226562 565.992188 326.992188 L 564.542969 325.128906 C 564.351562 324.878906 564.621094 324.539062 564.90625 324.671875 L 570.359375 327.171875 C 570.652344 327.304688 570.921875 326.953125 570.71875 326.707031 L 568.519531 324.042969 C 568.316406 323.796875 568.585938 323.445312 568.878906 323.578125 L 573.933594 325.90625 C 574.246094 326.050781 574.515625 325.644531 574.265625 325.414062 L 572.722656 323.976562 C 572.492188 323.757812 572.710938 323.375 573.015625 323.464844 L 579.25 325.335938 C 579.5625 325.429688 579.78125 325.03125 579.535156 324.820312 L 577.683594 323.214844 C 577.472656 323.03125 577.601562 322.683594 577.882812 322.6875 L 589.113281 322.796875 C 589.445312 322.800781 589.539062 322.347656 589.238281 322.21875 C 584.128906 320.046875 565.082031 313.234375 549.566406 324.558594 C 549.292969 324.757812 548.949219 324.414062 549.148438 324.136719 L 549.722656 323.335938 C 549.851562 323.15625 549.746094 322.902344 549.527344 322.863281 L 548.585938 322.707031 C 548.332031 322.664062 548.242188 322.339844 548.441406 322.175781 L 551.566406 319.585938 C 551.804688 319.386719 551.621094 319 551.316406 319.058594 L 550.953125 319.128906 C 550.636719 319.191406 550.457031 318.78125 550.714844 318.589844 L 553.808594 316.308594 C 554.054688 316.128906 553.902344 315.738281 553.597656 315.769531 L 552.28125 315.90625 C 551.964844 315.9375 551.820312 315.523438 552.085938 315.351562 L 556.191406 312.71875 C 556.460938 312.542969 556.304688 312.117188 555.984375 312.164062 L 553.742188 312.492188 C 553.410156 312.542969 553.257812 312.09375 553.550781 311.933594 L 556.53125 310.289062 C 556.828125 310.125 556.667969 309.671875 556.335938 309.730469 L 555.363281 309.894531 C 555.046875 309.949219 554.875 309.542969 555.132812 309.355469 L 558.699219 306.742188 C 558.957031 306.554688 558.785156 306.148438 558.472656 306.199219 C 558.152344 306.253906 557.988281 305.828125 558.261719 305.652344 L 573.125 295.949219 C 573.394531 295.773438 573.238281 295.351562 572.917969 295.398438 C 567.714844 296.210938 548.695312 300.410156 544.480469 318.753906 C 544.421875 319.011719 544.085938 319.078125 543.941406 318.855469 C 542.601562 316.757812 537.695312 309.925781 528.84375 306.65625 C 528.550781 306.546875 528.300781 306.90625 528.507812 307.140625 L 534.011719 313.390625 C 534.203125 313.605469 534.015625 313.9375 533.734375 313.886719 L 531.925781 313.566406 C 531.589844 313.507812 531.429688 313.960938 531.722656 314.125 L 535.570312 316.296875 C 535.859375 316.460938 535.710938 316.90625 535.378906 316.859375 L 533.996094 316.660156 C 533.65625 316.613281 533.515625 317.082031 533.824219 317.230469 L 537.367188 318.933594 C 537.675781 319.085938 537.535156 319.550781 537.195312 319.503906 L 535.65625 319.296875 C 535.328125 319.253906 535.179688 319.699219 535.46875 319.859375 L 539.460938 322.0625 C 539.746094 322.222656 539.613281 322.65625 539.289062 322.625 L 537.929688 322.496094 C 537.617188 322.464844 537.472656 322.871094 537.734375 323.046875 L 538.613281 323.628906 C 538.910156 323.824219 538.683594 324.28125 538.347656 324.164062 C 532.601562 322.121094 519.351562 319.351562 503.4375 328.847656 C 503.15625 329.015625 503.300781 329.445312 503.625 329.40625 L 515.25 328.039062 C 515.523438 328.007812 515.691406 328.332031 515.507812 328.539062 L 513.867188 330.371094 C 513.652344 330.617188 513.917969 330.980469 514.214844 330.847656 L 519.753906 328.34375 C 520.058594 328.207031 520.328125 328.59375 520.09375 328.832031 L 518.652344 330.28125 C 518.410156 330.527344 518.707031 330.925781 519.011719 330.757812 L 523.882812 328.105469 C 524.167969 327.949219 524.464844 328.292969 524.265625 328.550781 L 522.429688 330.949219 C 522.230469 331.207031 522.527344 331.550781 522.8125 331.394531 L 528.3125 328.417969 C 528.585938 328.273438 528.875 328.582031 528.710938 328.84375 L 527.511719 330.769531 C 527.351562 331.027344 527.628906 331.332031 527.902344 331.199219 L 533.335938 328.546875 C 533.621094 328.40625 533.898438 328.742188 533.710938 328.996094 L 532.871094 330.128906 C 532.6875 330.371094 532.941406 330.699219 533.222656 330.585938 L 538.753906 328.355469 C 538.972656 328.265625 539.203125 328.453125 539.164062 328.683594 L 538.90625 330.234375 C 538.882812 330.367188 538.777344 330.46875 538.640625 330.484375 C 536.101562 330.773438 512.726562 334.203125 502.066406 363.976562 C 501.957031 364.28125 502.332031 364.523438 502.558594 364.296875 L 513.628906 353.425781 C 513.828125 353.230469 514.160156 353.386719 514.136719 353.664062 L 513.796875 357.851562 C 513.769531 358.179688 514.214844 358.304688 514.363281 358.011719 L 518.484375 349.960938 C 518.628906 349.679688 519.054688 349.785156 519.054688 350.101562 L 519.039062 353.917969 C 519.039062 354.257812 519.507812 354.339844 519.625 354.023438 L 522.496094 346.25 C 522.605469 345.949219 523.046875 346.003906 523.078125 346.324219 L 523.566406 351.027344 C 523.601562 351.339844 524.027344 351.398438 524.148438 351.109375 L 527.492188 342.9375 C 527.59375 342.683594 527.957031 342.6875 528.050781 342.945312 L 528.683594 344.644531 C 528.722656 344.738281 528.707031 344.84375 528.644531 344.925781 C 527.675781 346.207031 519.851562 357.042969 519.539062 374.113281 C 519.535156 374.433594 519.964844 374.542969 520.109375 374.257812 L 526.792969 361.171875 C 526.917969 360.933594 527.269531 360.964844 527.347656 361.222656 L 528.496094 365.050781 C 528.589844 365.363281 529.046875 365.320312 529.082031 364.996094 L 530.039062 356.304688 C 530.074219 355.996094 530.496094 355.933594 530.617188 356.21875 L 532.222656 359.988281 C 532.347656 360.285156 532.792969 360.203125 532.800781 359.878906 L 532.996094 352.164062 C 533.003906 351.84375 533.445312 351.757812 533.574219 352.050781 L 535.644531 356.785156 C 535.773438 357.082031 536.210938 356.996094 536.222656 356.671875 L 536.453125 347.453125 C 536.460938 347.144531 536.878906 347.046875 537.023438 347.324219 L 539.164062 351.464844 C 539.304688 351.730469 539.707031 351.652344 539.730469 351.351562 L 540.476562 342.96875 C 540.503906 342.65625 540.929688 342.589844 541.054688 342.878906 L 542.042969 345.214844 C 542.160156 345.492188 542.566406 345.441406 542.617188 345.144531 L 543.617188 339.191406 C 543.789062 338.160156 545.066406 337.769531 545.785156 338.527344 C 545.828125 338.574219 545.855469 338.628906 545.867188 338.691406 C 546.1875 341.101562 549.578125 413.121094 540.585938 464.53125 L 555.625 464.53125 C 555.621094 464.53125 560.015625 408.785156 549.671875 338.46875 Z M 549.671875 338.46875 " fill-opacity="1" fill-rule="nonzero"/></g><g clip-path="url(#04fa2137c8)"><path fill="#ef529c" d="M 98.316406 319.074219 C 98.332031 318.960938 98.296875 318.851562 98.210938 318.78125 C 96.894531 317.726562 94.9375 318.582031 94.820312 320.261719 L 94.5 324.792969 C 94.480469 325.089844 94.085938 325.179688 93.9375 324.921875 L 92.347656 322.148438 C 92.195312 321.886719 91.796875 321.988281 91.785156 322.289062 L 91.457031 330.640625 C 91.445312 330.941406 91.046875 331.039062 90.898438 330.777344 L 88.800781 327.167969 C 88.640625 326.890625 88.21875 327.019531 88.238281 327.335938 L 88.820312 336.691406 C 88.839844 337.019531 88.398438 337.140625 88.25 336.847656 L 85.726562 331.867188 C 85.582031 331.578125 85.140625 331.695312 85.160156 332.019531 L 85.664062 341 C 85.683594 341.332031 85.230469 341.445312 85.089844 341.140625 L 82.917969 336.429688 C 82.78125 336.140625 82.347656 336.230469 82.34375 336.550781 L 82.160156 345.222656 C 82.152344 345.550781 81.703125 345.632812 81.582031 345.332031 L 79.964844 341.382812 C 79.863281 341.136719 79.515625 341.132812 79.410156 341.375 L 73.554688 354.84375 C 73.429688 355.128906 73.007812 355.0625 72.980469 354.753906 C 72.570312 350.230469 71.835938 333.078125 82.367188 320.4375 C 82.414062 320.382812 82.4375 320.3125 82.4375 320.242188 L 82.417969 319.488281 C 82.410156 319.183594 82.003906 319.082031 81.855469 319.347656 L 77.625 326.773438 C 77.464844 327.046875 77.046875 326.925781 77.0625 326.605469 L 77.300781 321.917969 C 77.316406 321.589844 76.875 321.476562 76.730469 321.769531 L 72.988281 329.371094 C 72.839844 329.671875 72.386719 329.542969 72.417969 329.210938 L 72.863281 324.515625 C 72.890625 324.199219 72.476562 324.058594 72.308594 324.328125 L 67.214844 332.460938 C 67.042969 332.738281 66.613281 332.578125 66.664062 332.253906 L 67.308594 327.984375 C 67.347656 327.714844 67.039062 327.53125 66.824219 327.699219 L 55.21875 336.785156 C 54.96875 336.980469 54.625 336.707031 54.761719 336.417969 C 57.191406 331.3125 68.621094 310.351562 93.375 307.984375 C 93.484375 307.976562 93.578125 307.90625 93.621094 307.804688 L 94.015625 306.878906 C 94.117188 306.644531 93.902344 306.402344 93.660156 306.46875 L 87.53125 308.195312 C 87.234375 308.28125 87.019531 307.921875 87.230469 307.699219 L 88.195312 306.6875 C 88.414062 306.457031 88.179688 306.09375 87.882812 306.195312 L 82.328125 308.066406 C 82.046875 308.164062 81.8125 307.832031 81.996094 307.597656 L 83.445312 305.734375 C 83.636719 305.484375 83.367188 305.144531 83.082031 305.277344 L 77.628906 307.777344 C 77.335938 307.910156 77.066406 307.558594 77.269531 307.3125 L 79.46875 304.648438 C 79.671875 304.402344 79.402344 304.050781 79.109375 304.183594 L 74.054688 306.511719 C 73.742188 306.65625 73.472656 306.253906 73.722656 306.019531 L 75.265625 304.582031 C 75.496094 304.363281 75.277344 303.980469 74.972656 304.070312 L 68.738281 305.941406 C 68.425781 306.035156 68.207031 305.636719 68.453125 305.425781 L 70.304688 303.820312 C 70.515625 303.636719 70.386719 303.289062 70.105469 303.292969 L 58.875 303.402344 C 58.542969 303.40625 58.449219 302.953125 58.753906 302.824219 C 63.859375 300.65625 82.90625 293.839844 98.421875 305.164062 C 98.695312 305.363281 99.039062 305.019531 98.839844 304.746094 L 98.265625 303.941406 C 98.136719 303.761719 98.242188 303.507812 98.460938 303.46875 L 99.402344 303.3125 C 99.660156 303.269531 99.746094 302.949219 99.546875 302.78125 L 96.421875 300.191406 C 96.183594 299.992188 96.367188 299.605469 96.671875 299.664062 L 97.035156 299.734375 C 97.351562 299.796875 97.53125 299.386719 97.273438 299.195312 L 94.179688 296.917969 C 93.933594 296.734375 94.085938 296.34375 94.390625 296.375 L 95.707031 296.511719 C 96.023438 296.546875 96.167969 296.128906 95.902344 295.960938 L 91.796875 293.324219 C 91.527344 293.148438 91.683594 292.722656 92.003906 292.769531 L 94.246094 293.101562 C 94.578125 293.148438 94.730469 292.699219 94.4375 292.539062 L 91.457031 290.894531 C 91.160156 290.730469 91.320312 290.277344 91.652344 290.335938 L 92.625 290.5 C 92.941406 290.554688 93.113281 290.148438 92.855469 289.960938 L 89.289062 287.347656 C 89.03125 287.160156 89.203125 286.753906 89.515625 286.804688 C 89.835938 286.859375 90 286.433594 89.726562 286.257812 L 74.863281 276.554688 C 74.59375 276.378906 74.75 275.957031 75.070312 276.003906 C 80.273438 276.816406 99.292969 281.015625 103.507812 299.359375 C 103.566406 299.617188 103.902344 299.683594 104.046875 299.460938 C 105.386719 297.363281 110.292969 290.53125 119.144531 287.261719 C 119.4375 287.15625 119.6875 287.511719 119.480469 287.746094 L 113.976562 293.996094 C 113.785156 294.210938 113.972656 294.542969 114.253906 294.492188 L 116.0625 294.171875 C 116.398438 294.113281 116.558594 294.566406 116.265625 294.730469 L 112.417969 296.902344 C 112.128906 297.066406 112.28125 297.511719 112.609375 297.464844 L 113.992188 297.265625 C 114.332031 297.21875 114.472656 297.6875 114.164062 297.835938 L 110.621094 299.542969 C 110.3125 299.691406 110.453125 300.15625 110.792969 300.109375 L 112.332031 299.902344 C 112.660156 299.859375 112.808594 300.304688 112.519531 300.464844 L 108.527344 302.667969 C 108.242188 302.828125 108.375 303.261719 108.703125 303.230469 L 110.058594 303.101562 C 110.371094 303.070312 110.515625 303.480469 110.253906 303.652344 L 109.375 304.234375 C 109.082031 304.429688 109.304688 304.886719 109.640625 304.769531 C 115.386719 302.726562 128.636719 299.957031 144.550781 309.453125 C 144.832031 309.621094 144.6875 310.050781 144.367188 310.011719 L 132.738281 308.644531 C 132.464844 308.613281 132.296875 308.941406 132.480469 309.144531 L 134.121094 310.976562 C 134.335938 311.222656 134.070312 311.589844 133.773438 311.453125 L 128.234375 308.949219 C 127.929688 308.8125 127.660156 309.199219 127.894531 309.4375 L 129.335938 310.886719 C 129.578125 311.136719 129.28125 311.53125 128.976562 311.363281 L 124.105469 308.710938 C 123.820312 308.554688 123.523438 308.898438 123.722656 309.160156 L 125.558594 311.554688 C 125.757812 311.8125 125.464844 312.15625 125.175781 312 L 119.675781 309.027344 C 119.402344 308.878906 119.113281 309.1875 119.277344 309.449219 L 120.476562 311.375 C 120.636719 311.632812 120.359375 311.9375 120.085938 311.804688 L 114.652344 309.152344 C 114.367188 309.011719 114.089844 309.347656 114.277344 309.601562 L 115.117188 310.734375 C 115.300781 310.976562 115.046875 311.304688 114.765625 311.191406 L 109.234375 308.960938 C 109.015625 308.871094 108.785156 309.058594 108.824219 309.289062 L 109.082031 310.839844 C 109.105469 310.972656 109.210938 311.074219 109.347656 311.089844 C 111.886719 311.378906 135.261719 314.808594 145.921875 344.585938 C 146.03125 344.886719 145.65625 345.128906 145.429688 344.902344 L 134.363281 334.03125 C 134.164062 333.835938 133.828125 333.992188 133.851562 334.269531 L 134.191406 338.457031 C 134.21875 338.785156 133.773438 338.910156 133.625 338.617188 L 129.503906 330.566406 C 129.359375 330.285156 128.933594 330.390625 128.9375 330.707031 L 128.949219 334.523438 C 128.949219 334.863281 128.480469 334.945312 128.363281 334.628906 L 125.492188 326.855469 C 125.382812 326.554688 124.941406 326.609375 124.910156 326.929688 L 124.421875 331.632812 C 124.386719 331.945312 123.960938 332.003906 123.84375 331.714844 L 120.5 323.542969 C 120.394531 323.289062 120.03125 323.292969 119.9375 323.550781 L 119.304688 325.25 C 119.265625 325.34375 119.28125 325.453125 119.34375 325.53125 C 120.316406 326.8125 128.136719 337.648438 128.449219 354.71875 C 128.453125 355.039062 128.023438 355.148438 127.878906 354.863281 L 121.195312 341.78125 C 121.074219 341.539062 120.71875 341.570312 120.640625 341.828125 L 119.492188 345.65625 C 119.398438 345.96875 118.941406 345.925781 118.90625 345.601562 L 117.949219 336.910156 C 117.914062 336.601562 117.492188 336.539062 117.371094 336.824219 L 115.765625 340.59375 C 115.640625 340.890625 115.195312 340.808594 115.1875 340.484375 L 114.992188 332.769531 C 114.984375 332.449219 114.542969 332.363281 114.414062 332.65625 L 112.34375 337.390625 C 112.214844 337.6875 111.777344 337.601562 111.765625 337.277344 L 111.535156 328.058594 C 111.527344 327.75 111.109375 327.652344 110.964844 327.929688 L 108.824219 332.070312 C 108.683594 332.335938 108.28125 332.257812 108.257812 331.957031 L 107.511719 323.574219 C 107.484375 323.261719 107.058594 323.195312 106.933594 323.484375 L 105.945312 325.820312 C 105.828125 326.097656 105.421875 326.050781 105.371094 325.753906 L 104.375 319.796875 C 104.199219 318.765625 102.921875 318.375 102.203125 319.136719 C 102.160156 319.179688 102.132812 319.234375 102.121094 319.296875 C 101.800781 321.707031 98.410156 393.726562 107.402344 445.136719 L 92.363281 445.136719 C 92.367188 445.136719 87.972656 389.394531 98.316406 319.074219 Z M 98.316406 319.074219 " fill-opacity="1" fill-rule="nonzero"/></g><g clip-path="url(#28c70558c4)"><path fill="#ef4523" d="M 164.84375 414.144531 L 189.621094 394.429688 L 202.074219 400.90625 Z M 579.28125 465.027344 L 542.628906 450.417969 L 522.515625 425.308594 L 482.441406 434.25 L 465.816406 419.367188 L 414.238281 409.949219 L 397.234375 383.382812 L 367.007812 396.949219 L 344.714844 368.5 L 315.429688 357.195312 L 299.9375 371.515625 L 273.675781 386.019531 L 238.535156 377.355469 L 202.070312 400.902344 L 164.84375 414.144531 L 116.414062 419.226562 L 93.4375 443.480469 L 67.554688 457.988281 L 54.78125 477.582031 L 63.3125 475.828125 L 82.363281 480.226562 L 145.976562 470.175781 L 191.480469 477.242188 L 246.433594 471.746094 L 280.128906 470.960938 L 350.511719 479.285156 L 379.324219 475.988281 L 416.171875 480.226562 L 452.386719 472.53125 L 467.972656 477.398438 L 505.917969 471.90625 L 550.320312 483.523438 L 568.742188 480.226562 L 584.019531 484.308594 L 593.21875 477.585938 Z M 579.28125 465.027344 " fill-opacity="1" fill-rule="nonzero"/></g><g clip-path="url(#3a057b803d)"><path fill="#111111" d="M 593.410156 477.371094 L 579.46875 464.820312 C 579.460938 464.816406 579.449219 464.816406 579.441406 464.808594 C 579.425781 464.796875 579.417969 464.792969 579.402344 464.785156 C 579.394531 464.78125 579.390625 464.773438 579.382812 464.769531 L 542.800781 450.183594 L 522.738281 425.132812 C 522.726562 425.117188 522.707031 425.117188 522.691406 425.105469 C 522.667969 425.085938 522.644531 425.070312 522.617188 425.058594 C 522.582031 425.046875 522.550781 425.042969 522.511719 425.042969 C 522.492188 425.042969 522.476562 425.03125 522.457031 425.035156 L 482.523438 433.945312 L 466.003906 419.160156 C 466.003906 419.15625 466 419.15625 465.996094 419.15625 C 465.996094 419.152344 465.996094 419.148438 465.992188 419.148438 C 465.976562 419.136719 465.960938 419.136719 465.949219 419.132812 C 465.921875 419.117188 465.898438 419.097656 465.867188 419.089844 L 414.410156 409.695312 L 397.472656 383.234375 C 397.464844 383.222656 397.449219 383.21875 397.441406 383.210938 C 397.421875 383.183594 397.394531 383.171875 397.367188 383.152344 C 397.335938 383.136719 397.3125 383.125 397.277344 383.117188 C 397.261719 383.117188 397.253906 383.105469 397.242188 383.101562 C 397.222656 383.105469 397.207031 383.117188 397.1875 383.125 C 397.164062 383.128906 397.140625 383.117188 397.121094 383.128906 L 367.09375 396.597656 L 344.9375 368.324219 C 344.925781 368.308594 344.902344 368.304688 344.886719 368.289062 C 344.871094 368.277344 344.859375 368.261719 344.839844 368.253906 C 344.832031 368.25 344.824219 368.242188 344.816406 368.234375 L 315.53125 356.933594 C 315.480469 356.917969 315.425781 356.914062 315.375 356.921875 C 315.375 356.921875 315.371094 356.921875 315.371094 356.921875 C 315.363281 356.921875 315.359375 356.933594 315.355469 356.933594 C 315.3125 356.945312 315.269531 356.960938 315.238281 356.992188 L 299.800781 371.269531 L 273.636719 385.722656 L 238.601562 377.082031 C 238.59375 377.078125 238.585938 377.085938 238.578125 377.085938 C 238.535156 377.078125 238.488281 377.074219 238.441406 377.089844 C 238.429688 377.09375 238.421875 377.105469 238.410156 377.113281 C 238.402344 377.117188 238.390625 377.113281 238.382812 377.117188 L 202.0625 400.582031 L 189.75 394.179688 C 189.648438 394.128906 189.527344 394.140625 189.445312 394.210938 L 164.730469 413.875 L 116.382812 418.945312 C 116.363281 418.945312 116.347656 418.964844 116.328125 418.972656 C 116.296875 418.980469 116.277344 418.992188 116.25 419.007812 C 116.238281 419.019531 116.21875 419.019531 116.207031 419.03125 L 93.261719 443.257812 L 67.417969 457.742188 C 67.40625 457.75 67.398438 457.761719 67.386719 457.769531 C 67.375 457.777344 67.363281 457.785156 67.355469 457.792969 C 67.347656 457.800781 67.347656 457.808594 67.339844 457.8125 C 67.332031 457.820312 67.324219 457.824219 67.320312 457.835938 L 54.546875 477.425781 C 54.484375 477.523438 54.484375 477.644531 54.546875 477.738281 C 54.613281 477.832031 54.726562 477.875 54.839844 477.855469 L 63.308594 476.113281 L 82.300781 480.496094 C 82.3125 480.5 82.328125 480.496094 82.339844 480.496094 C 82.347656 480.5 82.355469 480.503906 82.363281 480.503906 C 82.371094 480.503906 82.375 480.5 82.378906 480.5 C 82.390625 480.496094 82.398438 480.5 82.410156 480.5 L 145.976562 470.457031 L 191.4375 477.515625 C 191.449219 477.515625 191.460938 477.515625 191.472656 477.515625 C 191.476562 477.515625 191.476562 477.519531 191.480469 477.519531 C 191.484375 477.519531 191.484375 477.515625 191.488281 477.515625 C 191.496094 477.515625 191.503906 477.515625 191.507812 477.515625 L 246.441406 472.023438 L 280.097656 471.234375 L 330.550781 477.195312 C 330.558594 477.195312 330.566406 477.203125 330.574219 477.203125 C 330.578125 477.203125 330.582031 477.199219 330.585938 477.199219 L 350.46875 479.546875 C 350.484375 479.550781 350.496094 479.558594 350.511719 479.558594 C 350.515625 479.558594 350.523438 479.554688 350.527344 479.554688 L 350.542969 479.558594 L 379.292969 476.257812 L 416.140625 480.5 C 416.144531 480.5 416.148438 480.5 416.15625 480.5 C 416.160156 480.5 416.164062 480.5 416.171875 480.5 C 416.175781 480.5 416.183594 480.496094 416.1875 480.496094 C 416.203125 480.496094 416.214844 480.5 416.230469 480.496094 L 452.371094 472.816406 L 467.890625 477.664062 C 467.910156 477.667969 467.929688 477.664062 467.953125 477.667969 C 467.960938 477.667969 467.964844 477.675781 467.972656 477.675781 C 467.980469 477.675781 467.988281 477.675781 468 477.671875 C 468 477.671875 468 477.671875 468.003906 477.671875 C 468.007812 477.671875 468.011719 477.671875 468.015625 477.671875 L 505.902344 472.183594 L 550.253906 483.789062 C 550.265625 483.792969 550.28125 483.789062 550.292969 483.789062 C 550.304688 483.792969 550.3125 483.796875 550.324219 483.796875 C 550.332031 483.796875 550.335938 483.792969 550.34375 483.792969 C 550.355469 483.789062 550.363281 483.796875 550.375 483.792969 L 568.734375 480.507812 L 583.945312 484.570312 C 583.96875 484.578125 583.996094 484.582031 584.019531 484.582031 C 584.042969 484.582031 584.0625 484.578125 584.085938 484.574219 C 584.101562 484.570312 584.109375 484.554688 584.121094 484.546875 C 584.144531 484.539062 584.167969 484.542969 584.1875 484.527344 L 593.386719 477.800781 C 593.457031 477.753906 593.5 477.675781 593.503906 477.589844 C 593.507812 477.507812 593.472656 477.429688 593.410156 477.371094 Z M 551.671875 482.996094 L 578.25 466.019531 L 568.578125 479.96875 Z M 441.25 474.609375 L 422.53125 448.988281 L 451.746094 472.378906 Z M 331.960938 476.804688 L 375.046875 464.035156 L 350.445312 478.992188 Z M 246.550781 471.460938 L 233.875 458.1875 L 278.253906 470.722656 Z M 82.5 479.917969 L 68.144531 458.363281 L 144.160156 470.179688 Z M 93.445312 443.800781 L 111.28125 452.863281 L 68.898438 457.554688 Z M 116.496094 419.542969 L 136.515625 425.480469 L 94.542969 442.722656 Z M 299.9375 371.828125 L 311.246094 377.257812 L 275.539062 385.3125 Z M 481.886719 434.132812 L 458.75 441.414062 L 465.949219 419.863281 Z M 578.496094 465.195312 L 550.402344 483.136719 L 533.40625 458.453125 Z M 532.347656 457.550781 L 483.300781 434.347656 L 522.328125 425.640625 Z M 458.738281 442.003906 L 481.589844 434.8125 L 465.847656 453.285156 Z M 112.195312 453.328125 L 144.277344 469.625 L 69.6875 458.035156 Z M 112.183594 452.691406 L 94.113281 443.511719 L 136.3125 426.171875 Z M 112.703125 452.957031 L 137.191406 426.042969 L 145.589844 469.664062 Z M 137.679688 425.609375 L 164.378906 414.640625 L 146.050781 469.070312 Z M 164.824219 415.082031 L 171.171875 436.492188 L 146.792969 468.632812 Z M 342.558594 368.792969 L 312.742188 376.890625 L 317.980469 368.941406 Z M 366.925781 397.269531 L 389.90625 421.070312 L 346.226562 404.28125 Z M 420.125 447.476562 L 378.667969 462.273438 L 404.054688 443.003906 Z M 404.351562 442.5 L 414.164062 411.125 L 420.695312 447.054688 Z M 166.285156 413.929688 L 201.414062 401.4375 L 192.996094 415.175781 Z M 192.488281 415.714844 L 171.621094 436.019531 L 165.222656 414.445312 Z M 202.082031 401.425781 L 210.933594 414.714844 L 193.660156 415.171875 Z M 269.34375 412.695312 L 229.761719 441.191406 L 257.925781 401.339844 Z M 202.597656 401.183594 L 255.992188 401.183594 L 211.570312 414.65625 Z M 211.027344 416.113281 L 207.648438 443.410156 L 188.195312 449.800781 Z M 207.875 443.929688 L 231.4375 457.109375 L 188.683594 450.234375 Z M 211.632812 415.808594 L 228.070312 442.152344 L 208.226562 443.320312 Z M 211.882812 415.148438 L 257.183594 401.410156 L 228.574219 441.894531 Z M 268.195312 414.214844 L 233.078125 457.042969 L 228.882812 442.515625 Z M 269.800781 413.148438 L 299.34375 442.53125 L 233.691406 457.1875 Z M 270.164062 412.714844 L 281.285156 399.804688 L 299.078125 441.476562 Z M 273.851562 386.886719 L 280.804688 398.867188 L 272.558594 397.085938 Z M 280.847656 399.453125 L 270.214844 411.792969 L 272.480469 397.644531 Z M 317.734375 400.546875 L 282.199219 399.03125 L 311.925781 377.824219 Z M 281.800781 399.578125 L 317.675781 401.109375 L 305.265625 429.09375 C 305.261719 429.09375 305.261719 429.097656 305.261719 429.101562 L 299.902344 441.96875 Z M 318.273438 401.148438 L 345.144531 404.519531 L 350.230469 442.976562 L 305.90625 429.035156 Z M 345.304688 403.96875 L 320.851562 400.90625 L 351.320312 398.480469 Z M 350.53125 443.699219 L 376.074219 462.777344 L 319.980469 457.457031 Z M 351.402344 443.644531 L 381.171875 443.265625 L 376.863281 462.664062 Z M 403.492188 442.417969 L 381.960938 442.695312 L 391.03125 422.386719 Z M 403.144531 442.984375 L 377.484375 462.464844 L 381.746094 443.261719 Z M 381.34375 442.703125 L 351.71875 443.082031 L 390.398438 422.425781 Z M 391.285156 421.730469 L 397.183594 385.441406 L 403.574219 441.484375 Z M 350.792969 442.933594 L 345.738281 404.699219 L 390.3125 421.832031 Z M 346.578125 403.566406 L 352.238281 398.40625 L 364.769531 397.40625 Z M 318.738281 400.511719 L 344.574219 369.113281 L 351.761719 397.878906 Z M 318.234375 400.238281 L 312.4375 377.554688 L 343.933594 369.003906 Z M 311.996094 376.996094 L 300.867188 371.652344 L 317.246094 369.03125 Z M 281.457031 398.871094 L 274.113281 386.210938 L 310.796875 377.9375 Z M 271.992188 397.078125 L 258.867188 400.371094 L 273.296875 386.765625 Z M 271.902344 397.683594 L 269.585938 412.140625 L 258.441406 401.054688 Z M 255.960938 400.621094 L 205.53125 400.621094 L 238.078125 395.292969 Z M 238.382812 394.800781 L 238.796875 378.117188 L 257.085938 400.371094 Z M 171.527344 436.957031 L 186.988281 450.257812 L 146.902344 469.421875 Z M 171.898438 436.535156 L 193.265625 415.746094 L 210.910156 415.28125 L 187.441406 449.90625 Z M 232.019531 457.773438 L 191.703125 476.824219 L 187.832031 450.664062 Z M 208.882812 443.847656 L 228.351562 442.699219 L 232.5 457.058594 Z M 299.261719 443.125 L 280.011719 470.636719 L 234.105469 457.667969 Z M 299.96875 443.097656 L 318.316406 457.539062 L 280.855469 470.414062 Z M 300.25 442.605469 L 305.539062 429.902344 L 318.132812 456.679688 Z M 319.035156 457.265625 L 306.050781 429.667969 L 349.78125 443.421875 Z M 375.574219 463.292969 L 330.703125 476.59375 L 319.425781 457.96875 Z M 420.707031 447.867188 L 415.945312 479.820312 L 377.808594 463.175781 Z M 458.09375 441.59375 L 422.347656 446.964844 L 465.300781 420.023438 Z M 457.957031 442.179688 L 452.195312 472.019531 L 421.730469 447.628906 Z M 458.449219 442.597656 L 465.476562 453.75 L 452.90625 471.320312 Z M 482.515625 434.597656 L 531.355469 457.703125 L 466.394531 453.515625 Z M 531.773438 458.292969 L 505.910156 471.589844 L 467.335938 454.140625 Z M 421.257812 446.988281 L 414.589844 410.296875 L 465.050781 419.515625 Z M 404.125 441.335938 L 397.652344 384.558594 L 413.929688 409.992188 Z M 390.800781 421.191406 L 367.488281 397.039062 L 396.871094 383.855469 Z M 352.332031 397.835938 L 345.304688 369.714844 L 366.460938 396.710938 Z M 318.058594 368.378906 L 315.808594 357.644531 L 343.226562 368.230469 Z M 317.492188 368.425781 L 300.8125 371.089844 L 315.253906 357.742188 Z M 257.914062 400.492188 L 239.289062 377.832031 L 273.105469 386.171875 Z M 237.820312 394.765625 L 203.359375 400.40625 L 238.238281 377.878906 Z M 137.34375 425.140625 L 117.847656 419.355469 L 162.949219 414.621094 Z M 81.738281 479.789062 L 63.652344 475.617188 L 67.679688 458.683594 Z M 187.273438 450.746094 L 191.144531 476.90625 L 146.917969 470.039062 Z M 232.894531 457.980469 L 245.828125 471.523438 L 193.070312 476.796875 Z M 318.660156 458.015625 L 320.769531 475.484375 L 281.378906 470.828125 Z M 319.332031 458.902344 L 330.035156 476.578125 L 321.34375 475.550781 Z M 376.839844 463.601562 L 378.996094 475.742188 L 351.738281 478.867188 Z M 377.414062 463.621094 L 414.335938 479.730469 L 379.570312 475.738281 Z M 421.230469 448.167969 L 440.644531 474.738281 L 416.507812 479.867188 Z M 465.605469 454.539062 L 467.652344 477.003906 L 452.839844 472.378906 Z M 466.140625 454.214844 L 504.929688 471.761719 L 468.226562 477.078125 Z M 532.714844 458.441406 L 549.664062 483.058594 L 506.703125 471.816406 Z M 579.152344 465.703125 L 583.628906 483.910156 L 569.207031 480.054688 Z M 533.496094 457.898438 L 542.675781 450.738281 L 576.921875 464.394531 Z M 542.230469 450.371094 L 532.957031 457.605469 L 523.238281 426.65625 Z M 189.652344 394.761719 L 201.371094 400.855469 L 166.335938 413.316406 Z M 66.90625 459.5 L 63.082031 475.585938 L 55.386719 477.167969 Z M 584.191406 483.832031 L 579.773438 465.851562 L 592.773438 477.558594 Z M 584.191406 483.832031 " fill-opacity="1" fill-rule="nonzero"/></g></svg>