<svg xmlns="http://www.w3.org/2000/svg" xmlns:xlink="http://www.w3.org/1999/xlink" width="5000" zoomAndPan="magnify" viewBox="0 0 3750 3749.999967" height="5000" preserveAspectRatio="xMidYMid meet" version="1.0"><defs><g/></defs><path fill="#fad02c" d="M 1875 375 C 1046.429688 375 375 1046.429688 375 1875 C 375 2703.570312 1046.429688 3375 1875 3375 C 2703.570312 3375 3375 2703.570312 3375 1875 C 3373.699219 1046.429688 2702.273438 375 1875 375 Z M 2682.792969 1295.777344 L 2390.585938 2665.910156 C 2376.296875 2734.738281 2295.777344 2764.609375 2239.933594 2723.050781 L 1546.429688 2206.167969 L 2312.664062 1513.960938 C 2312.664062 1513.960938 2364.609375 1471.105469 2350.324219 1458.117188 C 2334.738281 1442.53125 2277.597656 1476.296875 2249.027344 1495.777344 C 2219.15625 1517.855469 1310.066406 2091.882812 1310.066406 2091.882812 L 849.027344 1949.027344 C 797.078125 1933.441406 797.078125 1862.011719 872.402344 1830.84375 L 2565.910156 1178.894531 C 2639.933594 1142.53125 2698.375 1225.648438 2682.792969 1295.777344 Z M 2682.792969 1295.777344 " fill-opacity="1" fill-rule="nonzero"/><g fill="#000000" fill-opacity="1"><g transform="translate(2193.546242, 2100.036619)"><g><path d="M 29.9375 1.109375 C 25.707031 1.109375 22.367188 -0.078125 19.921875 -2.453125 C 17.472656 -4.828125 16.25 -7.976562 16.25 -11.90625 C 16.25 -15.769531 17.472656 -18.941406 19.921875 -21.421875 C 22.367188 -23.910156 25.707031 -25.15625 29.9375 -25.15625 C 34.25 -25.15625 37.628906 -23.96875 40.078125 -21.59375 C 42.523438 -19.21875 43.75 -16.066406 43.75 -12.140625 C 43.75 -8.203125 42.503906 -5.007812 40.015625 -2.5625 C 37.523438 -0.113281 34.164062 1.109375 29.9375 1.109375 Z M 29.9375 1.109375 "/></g></g></g></svg>