<svg xmlns="http://www.w3.org/2000/svg" xmlns:xlink="http://www.w3.org/1999/xlink" width="5000" zoomAndPan="magnify" viewBox="0 0 3750 3749.999967" height="5000" preserveAspectRatio="xMidYMid meet" version="1.0"><defs><g/></defs><path fill="#fad02c" d="M 1875 375 C 1046.574219 375 375 1046.574219 375 1875 C 375 2703.425781 1046.574219 3375 1875 3375 C 2703.425781 3375 3375 2703.425781 3375 1875 C 3375 1046.574219 2703.425781 375 1875 375 Z M 2775 2667 L 2074.242188 2667 L 1875 2380.296875 L 1675.757812 2667 L 975 2667 L 1524.617188 1875 L 975 1083 L 1675.757812 1083 L 1875 1369.703125 L 2074.242188 1083 L 2775 1083 L 2225.375 1875 Z M 2775 2667 " fill-opacity="1" fill-rule="nonzero"/><g fill="#000000" fill-opacity="1"><g transform="translate(1713.546266, 1755.679045)"><g><path d="M 29.9375 1.109375 C 25.707031 1.109375 22.367188 -0.078125 19.921875 -2.453125 C 17.472656 -4.828125 16.25 -7.976562 16.25 -11.90625 C 16.25 -15.769531 17.472656 -18.941406 19.921875 -21.421875 C 22.367188 -23.910156 25.707031 -25.15625 29.9375 -25.15625 C 34.25 -25.15625 37.628906 -23.96875 40.078125 -21.59375 C 42.523438 -19.21875 43.75 -16.066406 43.75 -12.140625 C 43.75 -8.203125 42.503906 -5.007812 40.015625 -2.5625 C 37.523438 -0.113281 34.164062 1.109375 29.9375 1.109375 Z M 29.9375 1.109375 "/></g></g></g></svg>